<svg width="192" height="192" viewBox="0 0 192 192" fill="none" xmlns="http://www.w3.org/2000/svg">
<rect width="192" height="192" fill="#0C64E6"/>
<path d="M156.601 146H35.3991C33.7628 146 32.6074 144.395 33.1249 142.841L47.5084 99.6411C47.8347 98.661 48.7508 98 49.7827 98H142.217C143.249 98 144.165 98.661 144.492 99.6411L158.875 142.841C159.393 144.395 158.237 146 156.601 146Z" fill="white" stroke="#616161"/>
<path fill-rule="evenodd" clip-rule="evenodd" d="M100.565 122.729C101.627 122.018 101.828 121.357 101.828 121.023C101.828 120.689 101.627 120.029 100.565 119.317C99.5248 118.62 97.9191 118.093 96 118.093C94.0808 118.093 92.4752 118.62 91.4345 119.317C90.3734 120.029 90.1715 120.689 90.1715 121.023C90.1715 121.357 90.3734 122.018 91.4345 122.729C92.4752 123.427 94.0808 123.953 96 123.953C97.9191 123.953 99.5248 123.427 100.565 122.729ZM96 126.884C100.828 126.884 104.743 124.26 104.743 121.023C104.743 117.787 100.828 115.163 96 115.163C91.1715 115.163 87.2573 117.787 87.2573 121.023C87.2573 124.26 91.1715 126.884 96 126.884Z" fill="#094EB4"/>
<path d="M94.5429 101.488H97.4571V141.535H94.5429V101.488Z" fill="#094EB4"/>
<path d="M97.9428 121.023C97.9428 121.563 97.073 122 96 122C94.927 122 94.0572 121.563 94.0572 121.023C94.0572 120.484 94.927 120.047 96 120.047C97.073 120.047 97.9428 120.484 97.9428 121.023Z" fill="#094EB4"/>
<path fill-rule="evenodd" clip-rule="evenodd" d="M48.4007 111.744H59.3306C60.3848 111.744 61.1691 112.724 60.9438 113.759L57.6289 128.997C57.4631 129.759 56.7917 130.302 56.0156 130.302H43.5436V127.372H54.9992L57.7616 114.674H48.4007V111.744Z" fill="#094EB4"/>
<path fill-rule="evenodd" clip-rule="evenodd" d="M143.114 111.744H132.184C131.129 111.744 130.345 112.724 130.57 113.759L133.885 128.997C134.051 129.759 134.723 130.302 135.499 130.302H147.971V127.372H136.515L133.753 114.674H143.114V111.744Z" fill="#094EB4"/>
<path fill-rule="evenodd" clip-rule="evenodd" d="M150.315 140.07L139.031 103.93H52.9688L41.6846 140.07H150.315ZM151.107 142.606L151.108 142.608L151.107 142.606ZM152.962 143H39.0383C38.3824 143 37.915 142.36 38.1115 141.731L50.6156 101.684C50.7427 101.277 51.118 101 51.5424 101H140.458C140.882 101 141.257 101.277 141.384 101.684L153.888 141.731C154.085 142.36 153.618 143 152.962 143Z" fill="#094EB4"/>
<g filter="url(#filter0_d_1198_7432)">
<path fill-rule="evenodd" clip-rule="evenodd" d="M128 67.5789C128 50.1384 113.673 36 96 36C78.3269 36 64 50.1384 64 67.5789C64 97.6541 92 120.211 96 120.211C100 120.211 128 97.6541 128 67.5789Z" fill="white"/>
<path d="M96 36.5C113.403 36.5 127.5 50.4207 127.5 67.5789H128.5C128.5 49.856 113.943 35.5 96 35.5V36.5ZM64.5 67.5789C64.5 50.4207 78.5968 36.5 96 36.5V35.5C78.057 35.5 63.5 49.856 63.5 67.5789H64.5ZM96 119.711C95.8479 119.711 95.5763 119.652 95.1696 119.487C94.7744 119.326 94.2911 119.082 93.7301 118.752C92.6089 118.092 91.2078 117.109 89.6274 115.828C86.4679 113.266 82.6183 109.532 78.8908 104.861C71.4308 95.5126 64.5 82.4622 64.5 67.5789H63.5C63.5 82.7709 70.5692 96.0362 78.1092 105.485C81.8817 110.212 85.7821 113.997 88.9976 116.605C90.6047 117.908 92.0474 118.922 93.2231 119.614C93.8105 119.959 94.3389 120.229 94.7933 120.413C95.2362 120.593 95.6521 120.711 96 120.711V119.711ZM127.5 67.5789C127.5 82.4622 120.569 95.5126 113.109 104.861C109.382 109.532 105.532 113.266 102.373 115.828C100.792 117.109 99.3911 118.092 98.2699 118.752C97.7089 119.082 97.2256 119.326 96.8304 119.487C96.4237 119.652 96.1521 119.711 96 119.711V120.711C96.3479 120.711 96.7638 120.593 97.2067 120.413C97.6611 120.229 98.1895 119.959 98.7769 119.614C99.9526 118.922 101.395 117.908 103.002 116.605C106.218 113.997 110.118 110.212 113.891 105.485C121.431 96.0362 128.5 82.7709 128.5 67.5789H127.5Z" fill="#616161"/>
<ellipse cx="96" cy="67.9419" rx="17.8182" ry="17.7858" fill="#616161"/>
<ellipse cx="96" cy="67.9419" rx="16" ry="15.971" fill="#094EB4"/>
</g>
<path d="M96 51.1579C86.7032 51.1579 79.1579 58.7032 79.1579 68C79.1579 77.2968 86.7032 84.8421 96 84.8421C105.297 84.8421 112.842 77.2968 112.842 68C112.842 58.7032 105.297 51.1579 96 51.1579ZM97.6842 56.7158L99.9579 55.1158C103.023 56.059 105.634 58.08 107.335 60.7411L106.678 62.9979L104.404 63.7726L97.6842 59.0737V56.7158ZM92.0421 55.1158L94.3158 56.7158V59.0737L87.5958 63.7726L85.3221 62.9979L84.6653 60.7411C86.3663 58.0968 88.9768 56.0758 92.0421 55.1158ZM87.7137 76.6063L85.7937 76.7747C83.7558 74.4168 82.5263 71.3516 82.5263 68C82.5263 67.7979 82.5432 67.6126 82.56 67.4105L84.2442 66.1811L86.5684 66.9895L89.0274 74.299L87.7137 76.6063ZM100.211 80.7832C98.88 81.2211 97.4653 81.4737 96 81.4737C94.5347 81.4737 93.12 81.2211 91.7895 80.7832L90.6274 78.2737L91.7053 76.4211H100.312L101.389 78.2905L100.211 80.7832ZM99.8232 73.0526H92.1768L89.9032 66.2821L96 62.0042L102.114 66.2821L99.8232 73.0526ZM106.206 76.7747L104.286 76.6063L102.956 74.299L105.415 66.9895L107.756 66.1979L109.44 67.4274C109.457 67.6126 109.474 67.7979 109.474 68C109.474 71.3516 108.244 74.4168 106.206 76.7747Z" fill="white"/>
<defs>
<filter id="filter0_d_1198_7432" x="59.5" y="33.5" width="73" height="93.2105" filterUnits="userSpaceOnUse" color-interpolation-filters="sRGB">
<feFlood flood-opacity="0" result="BackgroundImageFix"/>
<feColorMatrix in="SourceAlpha" type="matrix" values="0 0 0 0 0 0 0 0 0 0 0 0 0 0 0 0 0 0 127 0" result="hardAlpha"/>
<feOffset dy="2"/>
<feGaussianBlur stdDeviation="2"/>
<feComposite in2="hardAlpha" operator="out"/>
<feColorMatrix type="matrix" values="0 0 0 0 0 0 0 0 0 0 0 0 0 0 0 0 0 0 0.12 0"/>
<feBlend mode="normal" in2="BackgroundImageFix" result="effect1_dropShadow_1198_7432"/>
<feBlend mode="normal" in="SourceGraphic" in2="effect1_dropShadow_1198_7432" result="shape"/>
</filter>
</defs>
</svg>
