<svg width="34" height="42" viewBox="0 0 34 42" fill="none" xmlns="http://www.w3.org/2000/svg">
<g filter="url(#filter0_d_262_2630)">
<path fill-rule="evenodd" clip-rule="evenodd" d="M29 15C29 8.37258 23.6274 3 17 3C10.3726 3 5 8.37258 5 15C5 26.4286 15.5 35 17 35C18.5 35 29 26.4286 29 15Z" fill="white"/>
<path d="M17 3.5C23.3513 3.5 28.5 8.64873 28.5 15H29.5C29.5 8.09644 23.9036 2.5 17 2.5V3.5ZM5.5 15C5.5 8.64873 10.6487 3.5 17 3.5V2.5C10.0964 2.5 4.5 8.09644 4.5 15H5.5ZM17 34.5C17.0054 34.5 16.9495 34.4967 16.8084 34.4386C16.6788 34.3853 16.5118 34.3003 16.3097 34.1799C15.9064 33.9395 15.3939 33.5759 14.8096 33.0958C13.6422 32.1366 12.2143 30.7339 10.8303 28.9764C8.05756 25.4554 5.5 20.562 5.5 15H4.5C4.5 20.8666 7.19244 25.9732 10.0447 29.5951C11.4732 31.409 12.9515 32.8634 14.1748 33.8685C14.7858 34.3705 15.3397 34.7659 15.7977 35.0389C16.0263 35.1751 16.2387 35.2855 16.4277 35.3633C16.6051 35.4363 16.8071 35.5 17 35.5V34.5ZM28.5 15C28.5 20.562 25.9424 25.4554 23.1697 28.9764C21.7857 30.7339 20.3578 32.1366 19.1904 33.0958C18.6061 33.5759 18.0936 33.9395 17.6903 34.1799C17.4882 34.3003 17.3212 34.3853 17.1916 34.4386C17.0505 34.4967 16.9946 34.5 17 34.5V35.5C17.1929 35.5 17.3949 35.4363 17.5723 35.3633C17.7613 35.2855 17.9737 35.1751 18.2023 35.0389C18.6603 34.7659 19.2142 34.3705 19.8252 33.8685C21.0485 32.8634 22.5268 31.409 23.9553 29.5951C26.8076 25.9732 29.5 20.8666 29.5 15H28.5Z" fill="#616161"/>
<circle cx="17" cy="15" r="4" fill="#0C64E6"/>
</g>
<defs>
<filter id="filter0_d_262_2630" x="0.5" y="0.5" width="33" height="41" filterUnits="userSpaceOnUse" color-interpolation-filters="sRGB">
<feFlood flood-opacity="0" result="BackgroundImageFix"/>
<feColorMatrix in="SourceAlpha" type="matrix" values="0 0 0 0 0 0 0 0 0 0 0 0 0 0 0 0 0 0 127 0" result="hardAlpha"/>
<feOffset dy="2"/>
<feGaussianBlur stdDeviation="2"/>
<feComposite in2="hardAlpha" operator="out"/>
<feColorMatrix type="matrix" values="0 0 0 0 0 0 0 0 0 0 0 0 0 0 0 0 0 0 0.12 0"/>
<feBlend mode="normal" in2="BackgroundImageFix" result="effect1_dropShadow_262_2630"/>
<feBlend mode="normal" in="SourceGraphic" in2="effect1_dropShadow_262_2630" result="shape"/>
</filter>
</defs>
</svg>
